<?xml version="1.0" encoding="UTF-8" standalone="no"?>
<!DOCTYPE svg PUBLIC "-//W3C//DTD SVG 1.1//EN"
 "http://www.w3.org/Graphics/SVG/1.1/DTD/svg11.dtd">
<!-- Generated by graphviz version 5.0.1 (20220820.1526)
 -->
<!-- Title: The Sands Pages: 1 -->
<svg width="673pt" height="354pt"
 viewBox="0.00 0.00 673.10 353.96" xmlns="http://www.w3.org/2000/svg" xmlns:xlink="http://www.w3.org/1999/xlink">
<g id="graph0" class="graph" transform="scale(1 1) rotate(0) translate(4 349.96)">
<title>The Sands</title>
<polygon fill="white" stroke="none" points="-4,4 -4,-349.96 669.1,-349.96 669.1,4 -4,4"/>
<text text-anchor="middle" x="332.55" y="-7.8" font-family="Times New Roman,serif" font-size="14.00">The Sands</text>
<!-- Camp Nowhere -->
<g id="node1" class="node">
<title>Camp Nowhere</title>
<g id="a_node1"><a xlink:href="Camp Nowhere_map.html" xlink:title="Camp Nowhere&#10;Themes:Refuse, Water, Spice, Trade">
<ellipse fill="none" stroke="black" cx="434.89" cy="-319.09" rx="158.28" ry="26.74"/>
<text text-anchor="middle" x="434.89" y="-322.89" font-family="Times New Roman,serif" font-size="14.00">Camp Nowhere</text>
<text text-anchor="middle" x="434.89" y="-307.89" font-family="Times New Roman,serif" font-size="14.00">Themes:Refuse, Water, Spice, Trade</text>
</a>
</g>
</g>
<!-- Caves of Zambasa -->
<g id="node2" class="node">
<title>Caves of Zambasa</title>
<g id="a_node2"><a xlink:href="Caves of Zambasa_map.html" xlink:title="Caves of Zambasa&#10;Themes:Treasure, Secrets, Hidden">
<ellipse fill="none" stroke="black" cx="308.89" cy="-229.35" rx="147.57" ry="26.74"/>
<text text-anchor="middle" x="308.89" y="-233.15" font-family="Times New Roman,serif" font-size="14.00">Caves of Zambasa</text>
<text text-anchor="middle" x="308.89" y="-218.15" font-family="Times New Roman,serif" font-size="14.00">Themes:Treasure, Secrets, Hidden</text>
</a>
</g>
</g>
<!-- Camp Nowhere&#45;&gt;Caves of Zambasa -->
<g id="edge1" class="edge">
<title>Camp Nowhere&#45;&gt;Caves of Zambasa</title>
<path fill="none" stroke="black" d="M398.44,-292.71C381.72,-281.07 361.95,-267.3 345.25,-255.67"/>
</g>
<!-- Fort Mayhem -->
<g id="node3" class="node">
<title>Fort Mayhem</title>
<g id="a_node3"><a xlink:href="Fort Mayhem_map.html" xlink:title="Fort Mayhem&#10;Themes:Security, War, Strength">
<ellipse fill="none" stroke="black" cx="137.89" cy="-139.61" rx="137.77" ry="26.74"/>
<text text-anchor="middle" x="137.89" y="-143.41" font-family="Times New Roman,serif" font-size="14.00">Fort Mayhem</text>
<text text-anchor="middle" x="137.89" y="-128.41" font-family="Times New Roman,serif" font-size="14.00">Themes:Security, War, Strength</text>
</a>
</g>
</g>
<!-- Camp Nowhere&#45;&gt;Fort Mayhem -->
<g id="edge2" class="edge">
<title>Camp Nowhere&#45;&gt;Fort Mayhem</title>
<path fill="none" stroke="black" d="M303.1,-304.05C239.65,-294.46 172.82,-279.24 151.89,-256.22 129.98,-232.14 130.09,-192.62 133.19,-166.61"/>
</g>
<!-- The Pit -->
<g id="node4" class="node">
<title>The Pit</title>
<g id="a_node4"><a xlink:href="The Pit_map.html" xlink:title="The Pit&#10;Themes:Fear, Loss">
<ellipse fill="none" stroke="black" cx="561.89" cy="-229.35" rx="87.86" ry="26.74"/>
<text text-anchor="middle" x="561.89" y="-233.15" font-family="Times New Roman,serif" font-size="14.00">The Pit</text>
<text text-anchor="middle" x="561.89" y="-218.15" font-family="Times New Roman,serif" font-size="14.00">Themes:Fear, Loss</text>
</a>
</g>
</g>
<!-- Camp Nowhere&#45;&gt;The Pit -->
<g id="edge3" class="edge">
<title>Camp Nowhere&#45;&gt;The Pit</title>
<path fill="none" stroke="black" d="M471.62,-292.71C489.2,-280.57 510.13,-266.1 527.41,-254.17"/>
</g>
<!-- The Last Oasis -->
<g id="node5" class="node">
<title>The Last Oasis</title>
<g id="a_node5"><a xlink:href="The Last Oasis_map.html" xlink:title="The Last Oasis&#10;Themes:Hope, Life, Water">
<ellipse fill="none" stroke="black" cx="483.89" cy="-49.87" rx="116.85" ry="26.74"/>
<text text-anchor="middle" x="483.89" y="-53.67" font-family="Times New Roman,serif" font-size="14.00">The Last Oasis</text>
<text text-anchor="middle" x="483.89" y="-38.67" font-family="Times New Roman,serif" font-size="14.00">Themes:Hope, Life, Water</text>
</a>
</g>
</g>
<!-- Camp Nowhere&#45;&gt;The Last Oasis -->
<g id="edge4" class="edge">
<title>Camp Nowhere&#45;&gt;The Last Oasis</title>
<path fill="none" stroke="black" d="M547.11,-300.11C595.54,-289.85 644.44,-275.2 658.89,-256.22 678.76,-230.11 643.53,-117.05 639.89,-112.74 621.94,-91.48 595.68,-77.47 569.79,-68.26"/>
</g>
<!-- Caves of Zambasa&#45;&gt;Fort Mayhem -->
<g id="edge5" class="edge">
<title>Caves of Zambasa&#45;&gt;Fort Mayhem</title>
<path fill="none" stroke="black" d="M261.25,-203.91C237.54,-191.74 208.95,-177.07 185.26,-164.92"/>
</g>
<!-- Caves of Zambasa&#45;&gt;The Last Oasis -->
<g id="edge7" class="edge">
<title>Caves of Zambasa&#45;&gt;The Last Oasis</title>
<path fill="none" stroke="black" d="M306.29,-202.46C305.15,-176.91 307.47,-138.09 327.89,-112.74 345.25,-91.18 371.21,-77.11 396.99,-67.93"/>
</g>
<!-- Rock or Ages -->
<g id="node6" class="node">
<title>Rock or Ages</title>
<g id="a_node6"><a xlink:href="Rock or Ages_map.html" xlink:title="Rock or Ages&#10;Themes:Strength, Secrets, History">
<ellipse fill="none" stroke="black" cx="483.89" cy="-139.61" rx="147.16" ry="26.74"/>
<text text-anchor="middle" x="483.89" y="-143.41" font-family="Times New Roman,serif" font-size="14.00">Rock or Ages</text>
<text text-anchor="middle" x="483.89" y="-128.41" font-family="Times New Roman,serif" font-size="14.00">Themes:Strength, Secrets, History</text>
</a>
</g>
</g>
<!-- Caves of Zambasa&#45;&gt;Rock or Ages -->
<g id="edge6" class="edge">
<title>Caves of Zambasa&#45;&gt;Rock or Ages</title>
<path fill="none" stroke="black" d="M357.63,-203.91C381.8,-191.79 410.92,-177.19 435.1,-165.07"/>
</g>
<!-- Rock or Ages&#45;&gt;The Last Oasis -->
<g id="edge8" class="edge">
<title>Rock or Ages&#45;&gt;The Last Oasis</title>
<path fill="none" stroke="black" d="M483.89,-112.29C483.89,-101.08 483.89,-88.04 483.89,-76.87"/>
</g>
</g>
</svg>
